<?xml version="1.0" standalone="no"?>
<!DOCTYPE svg PUBLIC "-//W3C//DTD SVG 20010904//EN"
 "http://www.w3.org/TR/2001/REC-SVG-20010904/DTD/svg10.dtd">
<svg version="1.0" xmlns="http://www.w3.org/2000/svg"
 width="1280.000000pt" height="1280.000000pt" viewBox="0 0 1280.000000 1280.000000"
 preserveAspectRatio="xMidYMid meet">

<g transform="translate(0.000000,1280.000000) scale(0.100000,-0.100000)"
fill="#000000" stroke="none">
<path d="M5902 9939 c-127 -22 -274 -85 -376 -160 -152 -114 -287 -354 -366
-654 -37 -144 -73 -390 -83 -564 l-2 -45 -140 -21 c-384 -60 -644 -140 -750
-232 -55 -48 -70 -114 -40 -173 51 -98 305 -193 711 -265 l91 -17 -5 -146
c-20 -619 273 -1188 791 -1535 91 -61 105 -75 134 -130 18 -33 33 -64 33 -67
0 -4 -37 -14 -82 -24 -181 -38 -397 -111 -545 -183 -54 -26 -61 -27 -98 -15
-58 19 -137 17 -187 -6 l-44 -19 -103 311 c-57 171 -114 332 -127 357 -42 84
-119 131 -214 131 -44 0 -128 -24 -426 -125 -203 -68 -384 -132 -401 -141 -63
-32 -123 -136 -123 -213 0 -13 18 -80 41 -151 l41 -127 -50 -50 c-57 -57 -78
-113 -67 -177 9 -49 63 -112 111 -130 40 -14 41 -19 13 -44 -30 -26 -59 -92
-59 -134 0 -41 29 -108 56 -132 11 -10 36 -24 57 -33 l36 -15 -19 -32 c-81
-140 29 -291 200 -275 l60 5 20 -46 c38 -85 108 -137 201 -148 52 -6 77 1 435
120 224 74 399 138 425 155 24 15 55 47 69 69 14 23 32 42 41 42 64 1 254 69
351 126 l57 33 3 -1007 c3 -998 3 -1007 24 -1052 27 -57 77 -107 132 -131 39
-17 70 -19 269 -19 148 0 240 4 267 12 55 16 138 99 154 154 8 29 12 153 12
426 0 315 3 388 14 397 9 8 81 11 237 9 l224 -3 5 -405 c3 -273 9 -413 17
-430 26 -58 73 -108 124 -134 53 -26 54 -26 288 -26 216 0 240 2 281 21 76 34
127 96 145 176 l6 32 702 3 c688 3 703 3 737 24 19 11 45 35 57 54 l23 33 0
506 c0 657 27 603 -309 611 l-215 5 -45 92 c-25 50 -54 101 -65 112 -17 19
-17 23 -2 67 32 95 14 218 -73 483 -125 378 -278 565 -553 671 -155 60 -414
110 -568 110 -39 0 -70 3 -70 8 1 4 16 35 33 70 32 61 36 65 130 115 609 327
978 995 927 1677 -4 63 -7 116 -7 117 1 1 56 13 122 28 379 85 553 192 521
320 -28 109 -254 209 -634 280 -68 13 -125 25 -127 27 -2 1 -9 50 -15 108 -39
345 -133 678 -253 892 -122 218 -305 372 -507 425 -88 24 -261 23 -355 -1 -38
-10 -153 -50 -255 -89 l-185 -71 -110 -1 -110 0 -149 74 c-82 40 -176 82 -210
92 -72 23 -229 32 -304 18z m290 -114 c31 -10 55 -22 52 -27 -3 -4 7 -8 21 -8
17 0 24 -4 19 -12 -4 -7 -3 -8 4 -4 16 10 74 -22 66 -36 -4 -7 -3 -8 5 -4 6 4
26 -1 44 -11 91 -53 295 -97 338 -72 8 4 28 9 44 12 17 3 43 10 59 16 16 7 35
10 43 7 7 -3 13 0 13 6 0 9 3 9 12 0 7 -7 17 -12 23 -12 5 0 4 4 -3 9 -10 6
-3 13 23 25 20 10 45 19 57 21 12 3 24 8 27 13 7 11 61 26 80 23 8 -1 17 3 21
9 4 7 19 13 33 13 14 1 23 5 20 10 -2 4 12 7 31 7 20 0 36 3 36 8 0 11 54 16
155 15 116 -2 145 -5 141 -12 -2 -3 10 -7 26 -8 36 -3 61 -21 51 -37 -4 -6 1
-5 10 3 11 9 17 10 17 2 0 -6 9 -11 20 -11 11 0 29 -9 39 -19 11 -11 22 -17
25 -14 3 4 6 1 6 -5 0 -6 9 -14 20 -17 11 -3 20 -11 20 -17 0 -7 -4 -7 -13 1
-10 8 -14 7 -14 -3 0 -9 8 -13 22 -10 15 3 34 -10 65 -44 67 -70 97 -107 80
-98 -8 4 -4 -2 10 -14 14 -12 18 -18 10 -14 -8 4 -12 4 -8 -1 4 -4 3 -14 -3
-21 -16 -19 -1 -38 17 -23 12 10 12 14 2 21 -10 7 -10 8 2 5 8 -2 14 -10 12
-16 -1 -6 2 -11 8 -11 5 0 7 -8 3 -17 -3 -10 -3 -15 2 -11 10 10 34 -21 35
-44 0 -10 3 -18 8 -18 8 0 32 -49 32 -67 0 -7 4 -13 8 -13 5 0 9 -7 10 -15 1
-8 3 -22 4 -30 1 -8 5 -15 9 -15 5 0 5 -7 2 -17 -5 -12 -3 -14 7 -8 10 6 12
-2 8 -39 -5 -42 -4 -45 9 -29 14 17 14 17 8 -1 -3 -11 0 -23 7 -27 7 -4 13
-18 14 -31 1 -13 4 -30 7 -38 14 -44 24 -88 23 -112 -1 -15 3 -24 8 -21 5 4 7
-1 3 -10 -3 -10 -2 -17 3 -17 5 0 7 -14 5 -30 -2 -17 0 -28 5 -25 11 7 24 -77
17 -105 -3 -11 -1 -18 3 -15 8 5 16 -46 24 -153 l4 -52 -37 5 c-20 3 -47 7
-61 10 -14 3 -58 7 -99 10 -40 3 -77 7 -81 10 -4 3 -55 8 -111 11 -57 3 -117
8 -134 10 -38 6 -84 10 -157 15 -32 2 -58 8 -58 13 0 6 -5 5 -12 -2 -13 -13
-51 -16 -62 -5 -7 7 -35 9 -228 13 -74 1 -108 5 -108 13 0 8 -3 8 -9 -1 -6 -9
-27 -11 -82 -7 -41 3 -218 5 -394 4 -176 -1 -402 -3 -503 -3 -100 -1 -182 -4
-182 -8 0 -3 -19 -7 -42 -7 -24 0 -99 -5 -168 -9 -69 -5 -137 -8 -152 -7 -16
2 -28 -1 -28 -6 0 -5 -28 -9 -62 -10 -35 0 -116 -5 -180 -12 l-117 -12 4 95
c2 52 9 127 15 165 6 39 13 84 15 100 6 49 16 109 22 125 4 8 8 26 10 40 7 43
42 163 49 169 4 3 4 -2 1 -12 -4 -10 -3 -16 3 -12 5 3 7 19 3 35 -4 21 -2 30
7 30 8 0 11 3 7 6 -7 7 22 86 36 95 5 3 8 9 7 13 -5 17 24 67 36 62 17 -7 28
10 13 20 -8 5 -9 3 -4 -6 5 -8 4 -11 -3 -6 -15 9 26 79 43 72 17 -6 40 10 26
18 -6 4 -11 2 -11 -4 0 -6 -5 -8 -10 -5 -6 4 -2 18 11 36 11 16 24 27 29 24 4
-3 13 9 19 25 5 17 15 30 21 30 6 0 8 -5 4 -12 -4 -7 -3 -8 5 -4 6 4 9 11 6
16 -8 13 25 41 38 33 7 -3 9 -3 5 2 -11 11 27 36 44 30 8 -3 23 5 34 17 15 18
15 20 2 9 -12 -9 -18 -10 -18 -2 0 14 70 43 92 38 10 -3 16 0 15 5 -1 5 8 14
21 19 15 5 21 5 17 -1 -3 -6 1 -7 9 -4 9 3 14 10 11 14 -5 8 29 17 94 25 18 2
36 7 39 10 12 12 190 -2 244 -20z m1078 -1326 c312 -13 783 -53 891 -75 21 -4
34 -21 67 -92 79 -166 119 -295 149 -477 20 -122 22 -357 4 -477 l-13 -88
-118 0 -118 0 -7 40 c-18 109 -121 236 -232 288 l-58 27 -325 0 -325 0 -57
-27 c-31 -14 -77 -45 -102 -68 -48 -45 -116 -165 -116 -206 l0 -24 -193 0
-194 0 -13 43 c-34 114 -105 201 -206 252 l-59 30 -325 0 -325 0 -68 -32
c-115 -55 -195 -154 -227 -280 l-11 -43 -114 0 c-132 0 -117 -13 -135 123 -28
219 2 505 77 726 34 102 128 300 145 306 7 2 90 11 183 19 585 52 1177 63
1825 35z m-1010 -967 c145 -76 199 -221 152 -409 -56 -222 -229 -372 -460
-399 -147 -16 -315 48 -421 161 -100 108 -141 210 -141 355 0 72 4 94 25 136
42 82 88 125 171 160 58 24 62 24 344 22 277 -3 286 -4 330 -26z m1602 -5 c62
-31 116 -84 149 -148 29 -59 37 -174 15 -256 -102 -399 -587 -535 -875 -244
-105 106 -151 218 -151 372 0 76 4 93 31 147 34 68 84 114 157 143 43 17 74
18 332 16 l285 -2 57 -28z m-950 -372 c7 -66 36 -150 76 -223 37 -67 166 -192
237 -229 185 -97 406 -97 590 0 84 44 201 164 247 252 37 71 68 171 68 219 l0
26 110 0 c83 0 108 -3 105 -12 -44 -144 -76 -229 -111 -303 -202 -426 -570
-746 -1020 -888 -182 -57 -281 -71 -509 -71 -178 0 -214 3 -327 27 -594 126
-1071 549 -1262 1120 -20 59 -36 112 -36 117 0 6 42 10 103 10 l104 0 17 -80
c40 -189 160 -343 330 -425 106 -50 167 -65 274 -65 303 1 557 218 605 517
l12 73 190 -2 190 -3 7 -60z m-2325 -788 c34 -23 71 -89 80 -141 l5 -31 -492
-164 c-282 -94 -495 -160 -499 -155 -13 14 -41 105 -41 133 0 39 37 105 70
124 17 10 196 74 398 143 398 134 412 137 479 91z m201 -505 c82 -245 82 -248
67 -285 -18 -43 -19 -94 -4 -134 13 -35 57 -82 87 -94 22 -9 39 -35 29 -45 -9
-10 -829 -284 -848 -284 -11 0 -22 6 -25 14 -4 11 -58 43 -102 62 -2 1 7 17
18 37 23 39 29 114 11 159 -14 37 -66 85 -107 98 l-35 12 26 26 c100 99 75
245 -50 303 -22 10 -55 19 -73 19 -22 0 -31 4 -26 11 3 6 1 14 -5 18 -7 5 8
14 36 24 26 9 242 81 478 161 237 80 432 146 435 146 3 0 43 -112 88 -248z
m1279 92 c87 -35 296 -94 334 -94 10 0 71 -47 134 -105 75 -68 123 -105 138
-105 14 0 50 27 97 73 123 118 116 114 225 132 105 18 210 43 284 69 24 9 45
16 47 16 5 0 -198 -404 -215 -430 -8 -11 -22 -2 -75 48 -35 34 -68 62 -73 62
-5 0 -17 -6 -28 -14 -13 -10 -19 -28 -21 -73 -4 -105 -44 -152 -150 -175 -85
-19 -89 15 42 -467 19 -69 34 -132 34 -140 0 -9 -37 -53 -83 -99 l-82 -82 -88
88 -88 89 25 89 c30 109 76 279 106 396 27 103 24 109 -55 127 -98 22 -145 80
-145 180 0 49 -4 62 -19 71 -11 5 -23 10 -26 10 -4 0 -38 -30 -75 -66 l-68
-65 -88 163 c-48 90 -109 202 -135 251 -26 48 -46 87 -44 87 2 0 44 -16 92
-36z m-7 -315 c141 -262 146 -269 169 -269 11 0 41 21 67 47 26 26 49 42 51
36 26 -77 104 -158 165 -170 15 -3 30 -9 32 -12 3 -4 -4 -38 -15 -76 -71 -256
-119 -443 -119 -468 0 -29 241 -271 264 -265 20 4 266 245 266 261 0 7 -9 44
-19 82 -52 186 -121 452 -121 464 0 6 7 11 15 11 23 0 86 35 119 66 16 15 37
47 48 72 l20 44 48 -47 c74 -73 77 -71 194 157 l99 193 121 -6 c127 -7 164
-12 286 -35 293 -58 481 -168 595 -348 74 -117 148 -304 205 -521 35 -134 37
-193 10 -252 l-19 -43 -178 0 c-98 0 -187 -3 -199 -6 -31 -8 -59 67 -72 191
-28 271 -167 466 -417 581 -94 43 -125 41 -125 -9 0 -30 5 -35 65 -65 l65 -32
0 -495 0 -495 -1007 2 -1008 3 -3 442 -2 443 74 86 c41 48 85 106 98 130 22
42 22 43 3 64 -29 32 -55 21 -99 -45 -110 -164 -296 -291 -506 -346 -65 -17
-65 -17 -68 5 -2 11 -23 81 -48 155 -24 73 -44 140 -44 147 0 8 10 14 25 14
14 0 43 9 65 20 96 49 152 149 130 231 -9 33 -9 44 2 50 42 27 262 110 395
149 88 25 244 59 258 56 6 -2 57 -90 115 -197z m-2230 3 c74 -37 58 -135 -30
-179 -24 -13 -58 -23 -76 -23 -138 0 -166 137 -41 199 51 26 101 27 147 3z
m1331 -28 c31 -15 39 -32 39 -79 0 -68 -97 -135 -174 -121 -92 17 -123 94 -65
161 51 58 131 74 200 39z m-1252 -321 c99 -74 -29 -228 -161 -193 -81 22 -99
102 -38 165 54 56 144 68 199 28z m1130 -177 c42 -133 39 -183 -17 -235 -32
-30 -86 -50 -407 -157 -203 -68 -382 -124 -397 -124 -64 0 -119 40 -149 109
l-19 43 26 26 c32 33 52 70 62 118 l8 37 424 143 c234 78 427 143 430 143 3 1
20 -46 39 -103z m2801 -13 c101 -110 146 -215 165 -384 11 -107 31 -173 66
-219 8 -12 2 -34 -30 -103 l-40 -87 -116 0 -115 0 0 425 c0 245 4 425 9 425 5
0 32 -25 61 -57z m-3845 -108 c32 -16 55 -50 55 -83 0 -56 -89 -122 -164 -122
-131 0 -154 146 -31 201 49 23 97 24 140 4z m4631 -605 c18 -36 33 -68 33 -72
1 -5 -123 -8 -274 -8 -183 0 -275 3 -275 10 0 12 47 109 63 128 7 9 59 12 215
10 l206 -3 32 -65z m528 -176 c35 -8 46 -50 46 -166 l0 -108 -323 0 c-279 0
-326 2 -343 16 -10 8 -12 12 -4 8 12 -7 13 -5 3 8 -7 8 -9 19 -5 23 4 5 1 5
-6 1 -7 -4 -24 6 -43 26 -18 18 -28 27 -24 20 6 -12 3 -12 -15 -2 -31 16 -125
8 -148 -13 -21 -19 -47 -23 -36 -5 4 7 3 8 -5 4 -9 -6 -9 -11 0 -22 9 -11 8
-18 -5 -32 -9 -10 -13 -22 -9 -25 3 -4 -87 -7 -200 -7 -146 0 -207 3 -207 11
0 8 -5 8 -15 -1 -8 -7 -22 -10 -30 -6 -13 5 -16 27 -14 140 l2 135 680 0 c374
0 690 -2 701 -5z m-914 -388 c0 -7 7 -19 15 -26 9 -7 14 -19 11 -27 -3 -8 -1
-11 5 -8 5 4 17 1 26 -6 9 -8 23 -14 32 -14 9 0 15 -6 14 -12 -2 -9 3 -10 20
-3 25 10 98 24 110 21 5 -1 6 3 2 9 -3 5 -2 10 2 10 5 0 18 7 29 16 10 8 13
12 6 9 -11 -6 -11 -3 0 14 7 11 19 23 27 26 12 5 12 3 0 -12 -13 -17 -13 -17
7 0 19 15 50 17 337 17 l317 0 0 -295 c0 -190 -4 -295 -10 -295 -5 0 -10 -5
-10 -11 0 -5 5 -7 10 -4 6 4 5 -4 -1 -19 -7 -14 -15 -23 -20 -21 -4 3 -10 1
-14 -5 -8 -13 -1341 -14 -1350 0 -3 5 -12 10 -18 10 -7 0 -6 -4 3 -11 13 -9
13 -10 0 -6 -13 3 -15 50 -18 330 l-2 327 235 0 c193 0 235 -2 235 -14z"/>
<path d="M6167 9793 c-3 -5 6 -9 20 -10 19 -1 22 1 12 8 -17 11 -26 11 -32 2z"/>
<path d="M7215 9790 c3 -5 8 -10 11 -10 2 0 4 5 4 10 0 6 -5 10 -11 10 -5 0
-7 -4 -4 -10z"/>
<path d="M7584 9792 c4 -3 14 -7 22 -8 9 -1 13 0 10 4 -4 3 -14 7 -22 8 -9 1
-13 0 -10 -4z"/>
<path d="M7255 9780 c-3 -6 1 -7 9 -4 18 7 21 14 7 14 -6 0 -13 -4 -16 -10z"/>
<path d="M5878 9773 c7 -3 16 -2 19 1 4 3 -2 6 -13 5 -11 0 -14 -3 -6 -6z"/>
<path d="M7685 9749 c-4 -6 -5 -12 -2 -15 2 -3 7 2 10 11 7 17 1 20 -8 4z"/>
<path d="M7706 9733 c-6 -14 -5 -15 5 -6 7 7 10 15 7 18 -3 3 -9 -2 -12 -12z"/>
<path d="M6982 9716 c-13 -7 -19 -15 -16 -19 11 -11 26 -8 19 3 -6 10 7 14 33
11 16 -2 16 5 -1 12 -7 3 -23 -1 -35 -7z"/>
<path d="M7700 9700 c8 -5 20 -10 25 -10 6 0 3 5 -5 10 -8 5 -19 10 -25 10 -5
0 -3 -5 5 -10z"/>
<path d="M6540 9656 c0 -2 7 -7 16 -10 8 -3 12 -2 9 4 -6 10 -25 14 -25 6z"/>
<path d="M6794 9626 c1 -8 5 -18 8 -22 4 -3 5 1 4 10 -1 8 -5 18 -8 22 -4 3
-5 -1 -4 -10z"/>
<path d="M5577 9617 c-3 -8 1 -14 8 -14 7 0 11 6 8 14 -3 7 -6 13 -8 13 -2 0
-5 -6 -8 -13z"/>
<path d="M6628 9613 c6 -2 18 -2 25 0 6 3 1 5 -13 5 -14 0 -19 -2 -12 -5z"/>
<path d="M5490 9571 c0 -7 -5 -9 -12 -5 -7 5 -8 3 -3 -5 5 -9 10 -10 18 -2 6
6 8 14 4 18 -4 3 -7 1 -7 -6z"/>
<path d="M5424 9482 c-9 -5 -8 -10 1 -19 11 -10 13 -9 12 7 -1 11 -1 20 -2 20
0 0 -5 -4 -11 -8z"/>
<path d="M5750 8620 c8 -5 22 -9 30 -9 10 0 8 3 -5 9 -27 12 -43 12 -25 0z"/>
<path d="M6168 8623 c7 -3 16 -2 19 1 4 3 -2 6 -13 5 -11 0 -14 -3 -6 -6z"/>
<path d="M5708 8613 c7 -3 16 -2 19 1 4 3 -2 6 -13 5 -11 0 -14 -3 -6 -6z"/>
<path d="M5718 8593 c7 -3 16 -2 19 1 4 3 -2 6 -13 5 -11 0 -14 -3 -6 -6z"/>
<path d="M6633 8070 c-36 -21 -50 -43 -53 -80 -4 -52 1 -71 28 -100 54 -61
158 -47 188 25 29 69 7 136 -51 161 -46 19 -74 18 -112 -6z"/>
<path d="M5933 7146 c-42 -19 -67 -68 -60 -119 7 -54 43 -88 99 -94 39 -5 49
-2 80 26 42 37 53 79 34 126 -25 59 -94 87 -153 61z"/>
<path d="M7393 7153 c-32 -6 -72 -51 -79 -89 -24 -129 162 -187 213 -67 36 88
-39 175 -134 156z"/>
<path d="M6502 6439 c-19 -7 -23 -15 -20 -41 2 -27 12 -39 51 -65 99 -67 222
-67 320 -1 57 39 70 73 38 99 -24 20 -41 17 -86 -17 -59 -44 -150 -49 -210
-10 -66 43 -70 44 -93 35z"/>
<path d="M4138 5830 c-24 -14 -23 -26 2 -33 13 -3 18 -11 14 -20 -3 -9 4 -25
15 -36 12 -12 21 -29 21 -38 0 -24 -43 -98 -54 -94 -5 2 -13 -5 -19 -14 -7
-12 -4 -25 12 -45 l20 -28 -30 -11 c-30 -10 -30 -10 -12 -35 26 -36 60 -53 75
-38 17 17 28 15 28 -6 0 -18 81 -147 104 -167 6 -5 22 -25 35 -42 28 -41 49
-42 64 -3 6 17 15 30 19 30 8 0 2 48 -13 94 -7 23 -5 32 9 45 9 9 28 36 41 61
14 25 31 51 38 58 7 7 13 18 13 24 0 6 7 19 15 28 13 14 14 22 4 44 -7 14 -16
26 -21 26 -5 0 -6 5 -2 11 3 6 0 16 -7 21 -10 7 -7 8 11 4 14 -3 33 -6 44 -6
12 0 16 -5 12 -16 -4 -11 1 -18 14 -21 11 -3 20 -9 20 -14 0 -5 4 -9 10 -9 5
0 8 10 6 23 -2 12 1 28 7 35 5 6 7 25 4 42 -4 19 -1 34 8 44 20 19 19 29 -5
44 -17 10 -24 7 -55 -24 -20 -19 -33 -39 -30 -44 9 -15 -35 -34 -48 -21 -17
17 -30 13 -24 -9 6 -24 -11 -29 -73 -25 -25 2 -55 4 -67 4 -17 1 -23 7 -23 24
0 14 -9 26 -22 32 -20 9 -23 17 -21 64 2 50 1 53 -20 46 -26 -8 -43 -8 -77 -1
-14 4 -33 1 -42 -4z"/>
<path d="M7210 5176 c-67 -34 -103 -91 -108 -170 -4 -58 -1 -70 32 -132 38
-74 162 -244 176 -244 13 0 116 135 160 210 67 116 71 191 13 274 -38 53 -103
85 -173 85 -38 0 -69 -7 -100 -23z m157 -118 c51 -48 15 -138 -54 -138 -70 0
-106 78 -62 134 27 34 82 36 116 4z"/>
<path d="M4496 4949 c-36 -42 -34 -82 4 -121 27 -26 36 -30 68 -25 78 13 107
94 53 148 -41 41 -90 40 -125 -2z"/>
<path d="M9140 4206 c0 -2 7 -9 15 -16 9 -7 15 -8 15 -2 0 5 -7 12 -15 16 -8
3 -15 4 -15 2z"/>
<path d="M8778 4193 c7 -3 16 -2 19 1 4 3 -2 6 -13 5 -11 0 -14 -3 -6 -6z"/>
<path d="M9126 4181 c-4 -5 -2 -12 3 -15 5 -4 12 -2 15 3 4 5 2 12 -3 15 -5 4
-12 2 -15 -3z"/>
<path d="M8303 4073 c4 -3 -1 -12 -11 -20 -15 -13 -15 -13 6 -3 19 9 23 30 5
30 -4 0 -3 -3 0 -7z"/>
<path d="M7788 3963 c7 -3 16 -2 19 1 4 3 -2 6 -13 5 -11 0 -14 -3 -6 -6z"/>
<path d="M9043 3743 c0 -8 6 -9 19 -2 10 5 18 11 18 12 0 2 -8 3 -18 3 -10 0
-19 -6 -19 -13z"/>
<path d="M9090 3741 c-7 -13 -7 -22 0 -26 13 -8 30 3 29 18 0 9 -2 9 -6 0 -2
-7 -9 -13 -14 -13 -6 0 -5 8 1 20 6 11 8 20 6 20 -3 0 -10 -9 -16 -19z"/>
<path d="M8388 3723 c7 -3 16 -2 19 1 4 3 -2 6 -13 5 -11 0 -14 -3 -6 -6z"/>
<path d="M9046 3706 c3 -7 -2 -19 -11 -26 -12 -10 -15 -35 -15 -123 0 -91 -3
-114 -17 -131 -17 -20 -17 -20 -1 -7 16 12 18 11 16 -15 -2 -31 -15 -54 -30
-54 -5 0 -6 6 -2 13 6 9 4 9 -8 -1 -11 -9 -48 -13 -120 -12 -57 1 -110 1 -119
1 -24 -1 -46 -58 -31 -81 8 -14 8 -20 0 -22 -7 -3 -5 -7 6 -11 10 -4 15 -3 11
3 -4 6 57 9 164 7 109 -1 169 2 168 8 -1 6 4 9 11 7 8 -1 11 2 8 7 -3 5 1 14
9 21 13 11 14 10 9 -6 -4 -15 -4 -16 4 -5 6 8 8 21 4 29 -3 10 -1 13 6 9 7 -5
11 48 12 182 0 125 -3 192 -10 196 -6 4 -24 10 -40 15 -21 6 -27 5 -24 -4z"/>
<path d="M8370 3699 c0 -5 5 -7 10 -4 6 3 10 8 10 11 0 2 -4 4 -10 4 -5 0 -10
-5 -10 -11z"/>
<path d="M8027 3688 c-9 -5 -9 -10 1 -20 15 -15 16 -32 0 -22 -7 4 -8 3 -4 -5
6 -9 11 -9 21 -1 7 5 23 9 36 7 24 -4 24 -5 24 -138 0 -114 -2 -134 -15 -131
-8 2 -11 0 -7 -4 12 -13 52 -15 78 -5 17 7 19 10 7 10 -15 1 -17 16 -17 135 1
131 1 133 22 131 31 -3 31 -3 17 -20 -7 -8 -17 -12 -23 -8 -6 3 -7 1 -3 -6 6
-9 11 -9 22 0 12 10 14 -3 14 -85 0 -64 -4 -96 -11 -96 -8 0 -8 -4 0 -14 7 -8
11 -23 9 -33 -2 -12 4 -19 20 -21 22 -3 22 -2 23 120 1 68 1 126 1 129 -1 10
52 5 61 -6 5 -6 7 -4 5 4 -2 8 -14 15 -26 16 -33 2 -37 12 -5 13 48 0 54 -13
53 -117 -2 -168 -3 -163 22 -159 22 3 22 6 20 123 -3 110 -1 122 18 143 25 26
35 28 26 6 -5 -14 -4 -15 7 -5 25 20 39 -37 37 -146 -3 -128 -4 -125 23 -121
16 2 22 9 21 26 -1 18 1 20 12 11 8 -6 11 -16 7 -22 -3 -5 -1 -7 5 -3 6 3 14
1 17 -5 4 -6 30 -9 59 -8 60 3 76 7 76 21 0 6 -8 4 -17 -3 -14 -11 -13 -7 3
16 21 30 21 65 2 65 -6 0 -23 -14 -38 -30 -24 -27 -31 -29 -54 -21 -26 10 -26
12 -26 111 0 100 0 101 23 95 22 -7 22 -7 2 8 -19 15 -18 15 15 14 25 -2 35
-6 34 -18 -1 -12 7 -16 30 -15 26 1 31 5 28 23 -2 12 2 24 8 28 5 3 10 11 10
16 0 6 -7 3 -16 -6 -15 -15 -18 -15 -38 3 -33 30 -66 34 -97 11 -20 -14 -29
-16 -33 -7 -3 7 -4 4 -1 -7 2 -11 1 -26 -4 -34 -7 -11 -13 -7 -25 16 -8 17
-13 33 -11 35 3 3 -24 5 -60 5 -35 0 -62 -4 -59 -9 8 -13 -23 -9 -38 5 -12 11
-77 18 -76 7 1 -18 -4 -23 -11 -11 -7 10 -34 14 -101 15 -50 1 -97 -2 -103 -6z"/>
<path d="M8656 3668 c3 -5 10 -6 15 -3 13 9 11 12 -6 12 -8 0 -12 -4 -9 -9z"/>
<path d="M8060 3631 c0 -6 4 -12 8 -15 5 -3 9 1 9 9 0 8 -4 15 -9 15 -4 0 -8
-4 -8 -9z"/>
<path d="M8386 3612 c-3 -5 1 -9 9 -9 8 0 12 4 9 9 -3 4 -7 8 -9 8 -2 0 -6 -4
-9 -8z"/>
<path d="M8655 3300 c3 -5 8 -10 11 -10 2 0 4 5 4 10 0 6 -5 10 -11 10 -5 0
-7 -4 -4 -10z"/>
<path d="M9070 3235 c-7 -9 -8 -15 -2 -15 5 0 12 7 16 15 3 8 4 15 2 15 -2 0
-9 -7 -16 -15z"/>
<path d="M8647 3209 c7 -7 15 -10 18 -7 3 3 -2 9 -12 12 -14 6 -15 5 -6 -5z"/>
</g>
</svg>
